<?xml version="1.0" encoding="UTF-8"?>
<svg xmlns="http://www.w3.org/2000/svg" xmlns:xlink="http://www.w3.org/1999/xlink" width="24px" height="24px" viewBox="0 0 24 24" version="1.1">
<g id="surface1">
<rect x="0" y="0" width="24" height="24" style="fill:rgb(100%,100%,100%);fill-opacity:1;stroke:none;"/>
<path style=" stroke:none;fill-rule:nonzero;fill:rgb(100%,100%,100%);fill-opacity:1;" d="M 13 19.9375 C 17.1875 19.40625 20.238281 15.710938 19.976562 11.5 C 19.710938 7.289062 16.21875 4.003906 12 4 C 7.773438 3.996094 4.273438 7.28125 4.007812 11.5 C 3.746094 15.71875 6.808594 19.414062 11 19.9375 L 11 14 L 9 14 L 9 12 L 11 12 L 11 10.347656 C 11 9.007812 11.140625 8.523438 11.398438 8.035156 C 11.65625 7.550781 12.050781 7.15625 12.535156 6.898438 C 12.917969 6.695312 13.394531 6.570312 14.222656 6.519531 C 14.550781 6.496094 14.976562 6.523438 15.5 6.597656 L 15.5 8.5 L 15 8.5 C 14.082031 8.5 13.703125 8.542969 13.476562 8.664062 C 13.34375 8.730469 13.234375 8.84375 13.164062 8.976562 C 13.042969 9.203125 13 9.425781 13 10.34375 L 13 12 L 15.5 12 L 15 14 L 13 14 Z M 12 22 C 6.476562 22 2 17.523438 2 12 C 2 6.476562 6.476562 2 12 2 C 17.523438 2 22 6.476562 22 12 C 22 17.523438 17.523438 22 12 22 Z M 12 22 "/>
</g>
</svg>
