<?xml version="1.0" standalone="no"?>
<!DOCTYPE svg PUBLIC "-//W3C//DTD SVG 1.0//EN" "http://www.w3.org/TR/2001/REC-SVG-20010904/DTD/svg10.dtd">
<svg xmlns="http://www.w3.org/2000/svg" xmlns:xlink="http://www.w3.org/1999/xlink" id="body_1" width="1024" height="768">

<g transform="matrix(1.5 0 0 1.5 176.00003 -0)">
    <path d="M400 32L48 32C 21.49033 32 0 53.49033 0 80L0 80L0 432C 0 458.50967 21.49033 480 48 480L48 480L185.25 480L185.25 327.69L122.25 327.69L122.25 256L185.25 256L185.25 201.36C 185.25 139.20999 222.25 104.88 278.91998 104.88C 306.06 104.88 334.43997 109.72 334.43997 109.72L334.43997 109.72L334.43997 170.72L303.16998 170.72C 272.36 170.72 262.75 189.84 262.75 209.45L262.75 209.45L262.75 256L331.53 256L320.53 327.69L262.75 327.69L262.75 480L400 480C 426.50967 480 448 458.50967 448 432L448 432L448 80C 448 53.49033 426.50967 32 400 32z" stroke="none" fill="#FFFFFF" fill-rule="nonzero" />
</g>
</svg>