<?xml version="1.0" encoding="UTF-8"?>
<svg xmlns="http://www.w3.org/2000/svg" xmlns:xlink="http://www.w3.org/1999/xlink" width="24px" height="24px" viewBox="0 0 24 24" version="1.1">
<g id="surface1">
<path style=" stroke:none;fill-rule:nonzero;fill:rgb(100%,100%,100%);fill-opacity:1;" d="M 24 12.074219 C 24 5.40625 18.628906 0 12 0 C 5.371094 0 -0.00390625 5.40625 -0.00390625 12.074219 C -0.00390625 18.101562 4.386719 23.09375 10.121094 24 L 10.121094 15.5625 L 7.078125 15.5625 L 7.078125 12.074219 L 10.125 12.074219 L 10.125 9.414062 C 10.125 6.386719 11.917969 4.714844 14.65625 4.714844 C 15.972656 4.714844 17.34375 4.953125 17.34375 4.953125 L 17.34375 7.921875 L 15.832031 7.921875 C 14.339844 7.921875 13.875 8.851562 13.875 9.808594 L 13.875 12.074219 L 17.203125 12.074219 L 16.671875 15.5625 L 13.875 15.5625 L 13.875 24 C 19.609375 23.09375 24 18.097656 24 12.074219 Z M 24 12.074219 "/>
</g>
</svg>
