<?xml version="1.0" encoding="UTF-8"?>
<svg xmlns="http://www.w3.org/2000/svg" xmlns:xlink="http://www.w3.org/1999/xlink" width="32px" height="37px" viewBox="0 0 32 36" version="1.1">
<g id="surface1">
<path style=" stroke:none;fill-rule:nonzero;fill:rgb(100%,100%,100%);fill-opacity:1;" d="M 28.570312 2.25 L 3.429688 2.25 C 1.535156 2.25 0 3.761719 0 5.625 L 0 30.375 C 0 32.238281 1.535156 33.75 3.429688 33.75 L 13.230469 33.75 L 13.230469 23.039062 L 8.730469 23.039062 L 8.730469 18 L 13.230469 18 L 13.230469 14.15625 C 13.230469 9.789062 15.875 7.375 19.921875 7.375 C 21.863281 7.375 23.886719 7.714844 23.886719 7.714844 L 23.886719 12.003906 L 21.65625 12.003906 C 19.453125 12.003906 18.769531 13.347656 18.769531 14.726562 L 18.769531 18 L 23.679688 18 L 22.894531 23.039062 L 18.769531 23.039062 L 18.769531 33.75 L 28.570312 33.75 C 30.464844 33.75 32 32.238281 32 30.375 L 32 5.625 C 32 3.761719 30.464844 2.25 28.570312 2.25 Z M 28.570312 2.25 "/>
</g>
</svg>
