<?xml version="1.0" encoding="UTF-8"?>
<svg xmlns="http://www.w3.org/2000/svg" xmlns:xlink="http://www.w3.org/1999/xlink" width="14px" height="16px" viewBox="0 0 14 16" version="1.1">
<g id="surface1">
<path style=" stroke:none;fill-rule:nonzero;fill:rgb(100%,100%,100%);fill-opacity:1;" d="M 12.5 1 L 1.5 1 C 0.671875 1 0 1.671875 0 2.5 L 0 13.5 C 0 14.328125 0.671875 15 1.5 15 L 5.789062 15 L 5.789062 10.242188 L 3.820312 10.242188 L 3.820312 8 L 5.789062 8 L 5.789062 6.292969 C 5.789062 4.351562 6.945312 3.277344 8.714844 3.277344 C 9.5625 3.277344 10.453125 3.429688 10.453125 3.429688 L 10.453125 5.335938 L 9.472656 5.335938 C 8.511719 5.335938 8.210938 5.933594 8.210938 6.546875 L 8.210938 8 L 10.359375 8 L 10.015625 10.242188 L 8.210938 10.242188 L 8.210938 15 L 12.5 15 C 13.328125 15 14 14.328125 14 13.5 L 14 2.5 C 14 1.671875 13.328125 1 12.5 1 Z M 12.5 1 "/>
</g>
</svg>
