<?xml version="1.0" encoding="UTF-8"?>
<svg xmlns="http://www.w3.org/2000/svg" xmlns:xlink="http://www.w3.org/1999/xlink" width="24px" height="27px" viewBox="0 0 24 27" version="1.1">
<g id="surface1">
<path style=" stroke:none;fill-rule:nonzero;fill:rgb(100%,100%,100%);fill-opacity:1;" d="M 21.429688 1.6875 L 2.570312 1.6875 C 1.152344 1.6875 0 2.820312 0 4.21875 L 0 22.78125 C 0 24.179688 1.152344 25.3125 2.570312 25.3125 L 9.925781 25.3125 L 9.925781 17.28125 L 6.550781 17.28125 L 6.550781 13.5 L 9.925781 13.5 L 9.925781 10.617188 C 9.925781 7.339844 11.90625 5.53125 14.941406 5.53125 C 16.394531 5.53125 17.917969 5.785156 17.917969 5.785156 L 17.917969 9.003906 L 16.242188 9.003906 C 14.589844 9.003906 14.074219 10.011719 14.074219 11.046875 L 14.074219 13.5 L 17.761719 13.5 L 17.171875 17.28125 L 14.074219 17.28125 L 14.074219 25.3125 L 21.429688 25.3125 C 22.847656 25.3125 24 24.179688 24 22.78125 L 24 4.21875 C 24 2.820312 22.847656 1.6875 21.429688 1.6875 Z M 21.429688 1.6875 "/>
</g>
</svg>
