<svg fill="#ffffff" version="1.1" id="Capa_1" xmlns="http://www.w3.org/2000/svg" xmlns:xlink="http://www.w3.org/1999/xlink" width="24px" height="24px" viewBox="0 0 555.347 555.347" xml:space="preserve" stroke="#ffffff"><g id="SVGRepo_bgCarrier" stroke-width="0"></g><g id="SVGRepo_tracerCarrier" stroke-linecap="round" stroke-linejoin="round"></g><g id="SVGRepo_iconCarrier"> <g> <path d="M118.656,0.117c-4.896-0.612-9.18,1.224-11.628,4.284C80.712,2.565,56.232,21.538,48.276,50.914 c-10.404,37.944,23.868,77.724,62.424,75.888c31.212-1.836,57.528-28.152,64.872-57.528C183.528,31.33,154.152,3.177,118.656,0.117 z"></path> <path d="M155.376,189.837c0-4.896-3.06-7.344-6.732-7.956c-1.224-6.12-6.12-11.016-13.464-10.404 c-10.404,0.612-20.808,0.612-31.212,1.224c-11.628,0.612-26.316-0.612-37.332,4.284c-3.672,1.224-5.508,4.284-6.732,6.732 c-1.224,1.224-1.836,2.448-2.448,4.284c-14.688,74.664-14.076,149.94-13.464,225.828c0,26.929-12.852,97.309,11.628,117.504 c1.836,1.837,4.284,2.448,6.732,2.448c0.612,1.225,1.836,3.061,3.672,3.672c11.628,7.956,31.212,4.284,44.064,2.448 c7.344-1.224,17.136-1.836,24.48-6.12c6.12,2.448,14.076,0.612,15.912-6.731c9.792-48.96,1.224-103.429,0.612-153 C149.256,311.625,153.541,251.038,155.376,189.837z"></path> <path d="M514.009,383.229c0.611-50.796-1.836-101.592-25.093-147.492c-47.124-93.636-190.943-72.828-273.563-62.424 c-7.956,1.224-12.24,7.956-11.628,14.076c0,0,0,0,0,0.612c-16.524,111.996-16.524,230.724-14.688,343.944l0,0 c0,9.18,7.956,14.076,15.3,14.076c1.836,1.224,4.284,2.448,7.344,3.06c25.704,3.061,50.796,3.061,76.5,6.12 c7.956,1.225,13.464-5.508,14.688-12.239c5.509-1.837,10.404-6.732,8.568-13.465c-11.628-43.451-11.628-86.292-8.568-130.968 c2.448-32.436,12.853-69.156,9.181-101.592c21.42-4.896,39.779-20.808,57.527,2.448c18.36,23.868,22.645,59.976,26.316,88.74 c3.672,28.151,4.896,56.916,5.508,85.68c0.612,17.136-4.896,41.616,5.508,56.304c2.448,3.672,6.12,4.896,9.181,5.508 c0.611,0,1.224,0.612,1.836,0.612c23.868,5.508,53.244,11.016,77.724,6.732c7.344-1.225,11.017-7.956,11.017-14.688 C518.904,484.821,513.396,427.293,514.009,383.229z M433.225,507.466c3.672,1.836,7.344,2.447,11.016,1.224 c3.672,0.612,7.345,0,11.017-1.836c0.611,1.224,1.224,2.448,2.447,4.284c-8.567,0-16.523,0.611-25.092,0.611 C433.225,509.913,433.225,508.689,433.225,507.466z"></path> </g> </g></svg>